<svg width="135" height="40" viewBox="0 0 135 40" fill="none" xmlns="http://www.w3.org/2000/svg">
<path d="M130.2 40H4.7C2.1 40 0 37.9 0 35.3V4.7C0 2.1 2.1 0 4.7 0H130.2C132.8 0 135 2.1 135 4.7V35.2C135 37.9 132.8 40 130.2 40Z" fill="#A6A6A6"/>
<path d="M134 35.3C134 37.4 132.3 39.1 130.2 39.1H4.7C2.6 39.1 0.900002 37.4 0.900002 35.3V4.69999C0.900002 2.59999 2.6 0.899994 4.7 0.899994H130.2C132.3 0.899994 134 2.59999 134 4.69999V35.3Z" fill="black"/>
<path d="M30.1 19.8C30.1 16.6 32.7 15 32.9 14.9C31.4 12.7 29 12.4 28.2 12.4C26.2 12.2 24.3 13.6 23.3 13.6C22.3 13.6 20.7 12.4 19.1 12.5C17 12.5 15 13.8 13.9 15.7C11.6 19.6 13.3 25.4 15.5 28.6C16.6 30.2 17.9 31.9 19.5 31.8C21.1 31.7 21.7 30.8 23.7 30.8C25.6 30.8 26.2 31.8 27.9 31.8C29.6 31.8 30.7 30.2 31.8 28.7C33.1 26.9 33.6 25.2 33.6 25.1C33.5 24.9 30.2 23.6 30.1 19.8ZM26.9 10.3C27.8 9.2 28.4 7.7 28.2 6.2C26.9 6.3 25.4 7.1 24.4 8.1C23.6 9 22.9 10.6 23.1 12C24.6 12.2 26 11.4 26.9 10.3ZM53.6 31.5H51.3L50.1 27.6H45.8L44.6 31.5H42.4L46.7 18.2H49.3L53.6 31.5ZM49.8 26L48.7 22.5C48.6 22.1 48.4 21.3 48 20C47.9 20.6 47.7 21.4 47.4 22.5L46.2 26H49.8ZM64.7 26.6C64.7 28.2 64.3 29.5 63.4 30.5C62.6 31.3 61.6 31.8 60.5 31.8C59.2 31.8 58.3 31.3 57.8 30.4V35.5H55.7V25.1C55.7 24.1 55.7 23 55.6 21.9H57.5L57.6 23.4C58.3 22.3 59.4 21.7 60.8 21.7C61.9 21.7 62.9 22.1 63.6 23C64.3 23.9 64.7 25.1 64.7 26.6ZM62.5 26.7C62.5 25.8 62.3 25 61.9 24.4C61.4 23.8 60.8 23.5 60 23.5C59.5 23.5 59 23.7 58.6 24C58.2 24.4 57.9 24.8 57.8 25.4C57.7 25.7 57.7 25.9 57.7 26V27.6C57.7 28.3 57.9 28.9 58.3 29.4C58.7 29.9 59.3 30.1 60 30.1C60.8 30.1 61.4 29.8 61.9 29.2C62.3 28.5 62.5 27.7 62.5 26.7ZM75.7 26.6C75.7 28.2 75.3 29.5 74.4 30.5C73.6 31.3 72.6 31.8 71.5 31.8C70.2 31.8 69.3 31.3 68.8 30.4V35.5H66.7V25.1C66.7 24.1 66.7 23 66.6 21.9H68.5L68.6 23.4C69.3 22.3 70.4 21.7 71.8 21.7C72.9 21.7 73.9 22.1 74.6 23C75.3 23.9 75.7 25.1 75.7 26.6ZM73.5 26.7C73.5 25.8 73.3 25 72.9 24.4C72.4 23.8 71.8 23.5 71 23.5C70.5 23.5 70 23.7 69.6 24C69.2 24.4 68.9 24.8 68.8 25.4C68.7 25.7 68.7 25.9 68.7 26V27.6C68.7 28.3 68.9 28.9 69.3 29.4C69.7 29.9 70.3 30.1 71 30.1C71.8 30.1 72.4 29.8 72.9 29.2C73.3 28.5 73.5 27.7 73.5 26.7ZM88 27.8C88 28.9 87.6 29.9 86.8 30.6C85.9 31.4 84.7 31.8 83.2 31.8C81.8 31.8 80.6 31.5 79.8 31L80.3 29.2C81.2 29.8 82.3 30.1 83.4 30.1C84.2 30.1 84.8 29.9 85.3 29.6C85.7 29.2 86 28.8 86 28.1C86 27.6 85.8 27.1 85.4 26.7C85 26.3 84.4 26 83.6 25.7C81.3 24.8 80.1 23.6 80.1 21.9C80.1 20.8 80.5 19.9 81.3 19.2C82.1 18.5 83.2 18.2 84.6 18.2C85.8 18.2 86.8 18.4 87.6 18.8L87 20.4C86.2 20 85.4 19.8 84.5 19.8C83.7 19.8 83.2 20 82.7 20.4C82.3 20.7 82.2 21.1 82.2 21.6C82.2 22.1 82.4 22.6 82.8 22.9C83.2 23.2 83.8 23.6 84.7 23.9C85.8 24.4 86.7 24.9 87.2 25.5C87.8 26.1 88 26.9 88 27.8ZM95.1 23.5H92.8V28.2C92.8 29.4 93.2 30 94 30C94.4 30 94.7 30 94.9 29.9L95 31.5C94.6 31.7 94 31.7 93.3 31.7C92.5 31.7 91.8 31.4 91.3 30.9C90.8 30.4 90.6 29.5 90.6 28.3V23.5H89.2V21.9H90.6V20.1L92.7 19.5V21.9H95C95.1 21.9 95.1 23.5 95.1 23.5ZM105.7 26.6C105.7 28.1 105.3 29.3 104.4 30.2C103.5 31.2 102.3 31.7 100.9 31.7C99.5 31.7 98.4 31.2 97.5 30.3C96.6 29.4 96.2 28.2 96.2 26.8C96.2 25.3 96.6 24.1 97.5 23.1C98.4 22.2 99.5 21.7 101 21.7C102.4 21.7 103.5 22.2 104.4 23.1C105.3 24 105.7 25.2 105.7 26.6ZM103.5 26.7C103.5 25.8 103.3 25.1 102.9 24.4C102.5 23.6 101.8 23.3 101 23.3C100.1 23.3 99.5 23.7 99 24.4C98.6 25 98.4 25.8 98.4 26.7C98.4 27.6 98.6 28.3 99 29C99.5 29.8 100.1 30.1 100.9 30.1C101.7 30.1 102.4 29.7 102.8 28.9C103.3 28.3 103.5 27.6 103.5 26.7ZM112.6 23.8C112.4 23.8 112.2 23.7 111.9 23.7C111.1 23.7 110.6 24 110.2 24.6C109.8 25.1 109.7 25.7 109.7 26.5V31.5H107.6V24.9C107.6 23.8 107.6 22.8 107.5 21.9H109.4L109.5 23.7H109.6C109.8 23.1 110.2 22.6 110.7 22.2C111.2 21.9 111.7 21.7 112.2 21.7H112.7C112.6 21.8 112.6 23.8 112.6 23.8ZM122.2 26.3C122.2 26.7 122.2 27 122.1 27.3H115.7C115.7 28.2 116 29 116.6 29.5C117.1 29.9 117.8 30.2 118.7 30.2C119.6 30.2 120.5 30 121.3 29.7L121.6 31.2C120.7 31.6 119.6 31.8 118.4 31.8C116.9 31.8 115.7 31.4 114.9 30.5C114.1 29.6 113.6 28.5 113.6 27C113.6 25.6 114 24.3 114.8 23.4C115.6 22.4 116.7 21.9 118.2 21.9C119.6 21.9 120.6 22.4 121.3 23.4C121.9 24 122.2 25.1 122.2 26.3ZM120.1 25.7C120.1 25.1 120 24.5 119.7 24.1C119.3 23.5 118.8 23.2 118 23.2C117.3 23.2 116.7 23.5 116.3 24.1C115.9 24.6 115.7 25.1 115.7 25.8L120.1 25.7ZM49 10C49 11.2 48.6 12.1 47.9 12.7C47.2 13.2 46.3 13.5 45.1 13.5C44.5 13.5 44 13.5 43.6 13.4V7C44.2 6.9 44.8 6.9 45.4 6.9C46.5 6.9 47.4 7.1 48 7.6C48.7 8.2 49 9 49 10ZM47.9 10C47.9 9.2 47.7 8.7 47.3 8.2C46.9 7.8 46.3 7.6 45.5 7.6C45.2 7.6 44.9 7.6 44.7 7.7V12.6H45.4C46.2 12.6 46.8 12.4 47.3 11.9C47.8 11.4 47.9 10.9 47.9 10ZM54.9 11C54.9 11.7 54.7 12.3 54.3 12.8C53.9 13.3 53.3 13.5 52.6 13.5C51.9 13.5 51.4 13.3 50.9 12.8C50.5 12.3 50.3 11.8 50.3 11.1C50.3 10.4 50.5 9.8 50.9 9.3C51.3 8.8 51.9 8.6 52.6 8.6C53.3 8.6 53.8 8.8 54.3 9.3C54.7 9.8 54.9 10.3 54.9 11ZM53.8 11.1C53.8 10.7 53.7 10.3 53.5 10C53.3 9.6 53 9.4 52.6 9.4C52.2 9.4 51.9 9.6 51.6 10C51.4 10.3 51.3 10.7 51.3 11.1C51.3 11.5 51.4 11.9 51.6 12.2C51.8 12.6 52.1 12.8 52.6 12.8C53 12.8 53.3 12.6 53.5 12.2C53.7 11.9 53.8 11.5 53.8 11.1ZM62.8 8.7L61.3 13.4H60.3L59.7 11.4C59.5 10.9 59.4 10.4 59.3 9.9C59.2 10.4 59.1 10.9 58.9 11.4L58.3 13.4H57.3L55.9 8.7H57L57.5 10.9L57.8 12.4C57.9 12 58 11.5 58.2 10.9L58.9 8.7H59.8L60.4 10.9C60.6 11.4 60.7 12 60.8 12.5C60.9 12 61 11.5 61.1 10.9L61.7 8.7H62.8ZM68.2 13.4H67.2V10.7C67.2 9.9 66.9 9.5 66.3 9.5C66 9.5 65.7 9.6 65.5 9.8C65.3 10 65.2 10.3 65.2 10.6V13.4H64.2V8.7H65V9.4C65.1 9.2 65.3 9 65.5 8.8C65.8 8.6 66.1 8.5 66.4 8.5C66.8 8.5 67.2 8.6 67.5 8.9C67.9 9.2 68 9.8 68 10.5V13.4H68.2ZM71.1 13.4H70.1V6.6H71.1V13.4ZM77.3 11C77.3 11.7 77.1 12.3 76.7 12.8C76.3 13.3 75.7 13.5 75 13.5C74.3 13.5 73.8 13.3 73.3 12.8C72.9 12.3 72.7 11.8 72.7 11.1C72.7 10.4 72.9 9.8 73.3 9.3C73.7 8.8 74.3 8.6 75 8.6C75.7 8.6 76.2 8.8 76.7 9.3C77.1 9.8 77.3 10.3 77.3 11ZM76.2 11.1C76.2 10.7 76.1 10.3 75.9 10C75.7 9.6 75.4 9.4 75 9.4C74.6 9.4 74.3 9.6 74 10C73.8 10.3 73.7 10.7 73.7 11.1C73.7 11.5 73.8 11.9 74 12.2C74.2 12.6 74.5 12.8 75 12.8C75.4 12.8 75.7 12.6 75.9 12.2C76.1 11.9 76.2 11.5 76.2 11.1ZM82.3 13.4H81.4L81.3 12.9C81 13.3 80.5 13.5 79.9 13.5C79.5 13.5 79.1 13.4 78.8 13.1C78.6 12.8 78.4 12.5 78.4 12.1C78.4 11.5 78.6 11.1 79.1 10.8C79.6 10.5 80.3 10.3 81.1 10.4V10.3C81.1 9.7 80.8 9.4 80.1 9.4C79.6 9.4 79.2 9.5 78.9 9.7L78.8 9C79.2 8.7 79.8 8.6 80.4 8.6C81.6 8.6 82.2 9.2 82.2 10.5V12.2C82.3 12.8 82.3 13.2 82.3 13.4ZM81.2 11.8V11.1C80 11.1 79.5 11.4 79.5 12C79.5 12.2 79.6 12.4 79.7 12.6C79.8 12.7 80 12.8 80.2 12.8C80.4 12.8 80.6 12.7 80.8 12.6C81 12.5 81.1 12.3 81.2 12V11.8ZM88.3 13.4H87.4V12.6C87.1 13.2 86.6 13.5 85.9 13.5C85.3 13.5 84.9 13.3 84.5 12.8C84.1 12.3 83.9 11.8 83.9 11.1C83.9 10.3 84.1 9.7 84.5 9.2C84.9 8.8 85.4 8.5 86 8.5C86.6 8.5 87.1 8.7 87.3 9.1V6.6H88.3V12.2C88.2 12.6 88.3 13 88.3 13.4ZM87.2 11.4V10.3C87.1 10 87 9.8 86.8 9.7C86.6 9.5 86.4 9.4 86.1 9.4C85.7 9.4 85.4 9.6 85.2 9.9C85 10.2 84.9 10.6 84.9 11.1C84.9 11.6 85 11.9 85.2 12.2C85.4 12.5 85.7 12.7 86.1 12.7C86.4 12.7 86.7 12.6 86.9 12.3C87.1 12.1 87.2 11.8 87.2 11.4ZM97.2 11C97.2 11.7 97 12.3 96.6 12.8C96.2 13.3 95.6 13.5 94.9 13.5C94.2 13.5 93.7 13.3 93.2 12.8C92.8 12.3 92.6 11.8 92.6 11.1C92.6 10.4 92.8 9.8 93.2 9.3C93.6 8.8 94.2 8.6 94.9 8.6C95.6 8.6 96.1 8.8 96.6 9.3C97 9.8 97.2 10.3 97.2 11ZM96.2 11.1C96.2 10.7 96.1 10.3 95.9 10C95.7 9.6 95.4 9.4 95 9.4C94.6 9.4 94.3 9.6 94 10C93.8 10.3 93.7 10.7 93.7 11.1C93.7 11.5 93.8 11.9 94 12.2C94.2 12.6 94.5 12.8 95 12.8C95.4 12.8 95.7 12.6 95.9 12.2C96.1 11.9 96.2 11.5 96.2 11.1ZM102.9 13.4H101.9V10.7C101.9 9.9 101.6 9.5 100.9 9.5C100.6 9.5 100.3 9.6 100.1 9.8C99.9 10 99.8 10.3 99.8 10.6V13.4H98.8V8.7H99.7V9.4C99.8 9.2 100 9 100.2 8.8C100.5 8.6 100.8 8.5 101.2 8.5C101.6 8.5 102 8.6 102.3 8.9C102.7 9.2 102.8 9.8 102.8 10.5V13.4H102.9ZM109.9 9.5H108.7V11.8C108.7 12.4 108.9 12.7 109.3 12.7H109.8V13.5C109.6 13.6 109.3 13.6 109 13.6C108.6 13.6 108.3 13.5 108 13.2C107.8 12.9 107.7 12.5 107.7 11.9V9.5H107V8.7H107.7V7.9L108.7 7.6V8.8H109.9V9.5ZM115.5 13.4H114.5V10.7C114.5 9.9 114.2 9.4 113.6 9.4C113.1 9.4 112.8 9.6 112.6 10.1V13.3H111.6V6.6H112.6V9.4C112.9 8.9 113.4 8.6 114 8.6C114.4 8.6 114.8 8.7 115.1 9C115.5 9.4 115.6 9.9 115.6 10.6C115.5 10.6 115.5 13.4 115.5 13.4ZM121.2 10.9V11.4H118C118 11.9 118.2 12.2 118.5 12.5C118.8 12.7 119.1 12.8 119.5 12.8C120 12.8 120.4 12.7 120.8 12.6L121 13.3C120.6 13.5 120 13.6 119.4 13.6C118.7 13.6 118.1 13.4 117.7 13C117.3 12.6 117.1 12 117.1 11.3C117.1 10.6 117.3 10 117.7 9.5C118.1 9 118.7 8.7 119.3 8.7C120 8.7 120.5 9 120.8 9.5C121.1 9.8 121.2 10.3 121.2 10.9ZM120.2 10.6C120.2 10.3 120.1 10 120 9.8C119.8 9.5 119.5 9.4 119.2 9.4C118.9 9.4 118.6 9.5 118.4 9.8C118.2 10 118.1 10.3 118.1 10.6H120.2Z" fill="white"/>
</svg>
