<svg width="25" height="25" viewBox="0 0 25 25" fill="none" xmlns="http://www.w3.org/2000/svg">
<path d="M12.0676 5.18843C13.9762 5.18843 15.7746 6.07035 17.0925 7.44901V7.45308C17.0925 6.79103 17.5198 6.29022 18.1104 6.29022H18.2604C19.1924 6.29022 19.3791 7.20634 19.3791 7.49542L19.383 17.7845C19.3182 18.4587 20.051 18.8073 20.458 18.374C22.04 16.6778 23.936 9.64525 19.4729 5.57361C15.3105 1.77314 9.72396 2.40099 6.75375 4.53453C3.59682 6.80813 1.57891 11.8301 3.539 16.5499C5.67956 21.6957 11.7989 23.2307 15.441 21.6997C17.2847 20.9237 18.1346 23.5181 16.2183 24.3675C13.3301 25.6517 5.28114 25.5206 1.52188 18.7348C-1.01788 14.1509 -0.883511 6.08745 5.85534 1.90995C11.006 -1.28792 17.8018 -0.401928 21.8986 4.05652C26.1797 8.7218 25.932 17.4506 21.7525 20.8439C19.8596 22.387 17.0487 20.8862 17.069 18.6379L17.0479 17.905C15.73 19.2657 13.9762 20.0638 12.0676 20.0638C8.29198 20.0638 4.96787 16.598 4.96787 12.6664C4.96787 8.69249 8.29198 5.19006 12.0676 5.19006V5.18843ZM16.8167 12.3822C16.6737 9.50193 14.623 7.76741 12.145 7.76741H12.0512C9.19508 7.76741 7.60841 10.1127 7.60841 12.7715C7.60841 15.7527 9.52475 17.6354 12.0395 17.6354C14.8465 17.6354 16.6894 15.4946 16.8237 12.962L16.8167 12.3822Z" fill="#BCBCBC"/>
</svg>
