<svg width="22" height="25" viewBox="0 0 22 25" fill="none" xmlns="http://www.w3.org/2000/svg">
<path d="M18 8.33333H20.3333C20.6428 8.33333 20.9395 8.45625 21.1583 8.67504C21.3771 8.89383 21.5 9.19058 21.5 9.5V23.5C21.5 23.8094 21.3771 24.1062 21.1583 24.325C20.9395 24.5438 20.6428 24.6667 20.3333 24.6667H1.66667C1.35725 24.6667 1.0605 24.5438 0.841709 24.325C0.622916 24.1062 0.5 23.8094 0.5 23.5V9.5C0.5 9.19058 0.622916 8.89383 0.841709 8.67504C1.0605 8.45625 1.35725 8.33333 1.66667 8.33333H4V7.16666C4 5.31015 4.7375 3.52967 6.05025 2.21692C7.36301 0.904162 9.14348 0.166664 11 0.166664C12.8565 0.166664 14.637 0.904162 15.9497 2.21692C17.2625 3.52967 18 5.31015 18 7.16666V8.33333ZM2.83333 10.6667V22.3333H19.1667V10.6667H2.83333ZM9.83333 15.3333H12.1667V17.6667H9.83333V15.3333ZM5.16667 15.3333H7.5V17.6667H5.16667V15.3333ZM14.5 15.3333H16.8333V17.6667H14.5V15.3333ZM15.6667 8.33333V7.16666C15.6667 5.92899 15.175 4.742 14.2998 3.86683C13.4247 2.99166 12.2377 2.5 11 2.5C9.76232 2.5 8.57534 2.99166 7.70017 3.86683C6.825 4.742 6.33333 5.92899 6.33333 7.16666V8.33333H15.6667Z" fill="#BCBCBC"/>
</svg>
